<?xml version="1.0" encoding="UTF-8" standalone="no"?>
<!-- Created with Inkscape (http://www.inkscape.org/) -->
<svg id="svg3335" xmlns:rdf="http://www.w3.org/1999/02/22-rdf-syntax-ns#" xmlns="http://www.w3.org/2000/svg" viewBox="0 0 1000 1000" version="1.1" xmlns:cc="http://creativecommons.org/ns#" xmlns:dc="http://purl.org/dc/elements/1.1/">
 <metadata id="metadata3340">
  <rdf:RDF>
   <cc:Work rdf:about="">
    <dc:format>image/svg+xml</dc:format>
    <dc:type rdf:resource="http://purl.org/dc/dcmitype/StillImage"/>
    <dc:title/>
   </cc:Work>
  </rdf:RDF>
 </metadata>
 <g id="layer1" transform="translate(0,-52.36218)">
  <g id="g4125" stroke-linejoin="miter" transform="matrix(-1,0,0,1,-1636.9646,-161.62436)" stroke="#000" stroke-linecap="round" stroke-dasharray="none" stroke-miterlimit="4" stroke-width="46.59999847" fill="none">
   <path id="path3343" d="m-445.71,345.22,302.86,0"/>
   <path id="path3345" d="M-171.43,229.51-54.286,346.65-168.57,460.93"/>
  </g>
  <g id="g4129" stroke-linejoin="miter" transform="matrix(-2.4024289,0,0,3.767094,-8515.6384,-2687.217)" stroke="#000" stroke-linecap="round" stroke-dasharray="none" stroke-miterlimit="4" stroke-width="46.59999847" fill="none">
   <path id="path4115" d="m-398.57,722.36,302.86,0"/>
   <path id="path4117" d="M-171.43,606.65-54.286,723.79-168.57,838.08"/>
  </g>
  <g id="g4133" stroke-miterlimit="4" stroke-dasharray="none" transform="matrix(-1,0,0,1,-1636.9646,-161.62436)">
   <path id="path4119" stroke-linejoin="miter" d="m-467.4,1089.2,327.36,0" stroke="#000" stroke-linecap="square" stroke-width="50.36977005" fill="none"/>
   <path id="path4123" d="m-1066-830.58-148.32,0-148.32,0,74.158-128.45,74.159-128.45,74.158,128.45z" transform="matrix(0,0.72756948,-0.72756948,0,-812.30361,1972.6951)" stroke-linecap="round" stroke-width="46.59999847"/>
  </g>
  <g id="g4137" stroke-linejoin="miter" transform="matrix(0,-1,1,0,-263.51951,-1187.577)" stroke="#000" stroke-linecap="round" stroke-dasharray="none" stroke-miterlimit="4" stroke-width="46.59999847" fill="none">
   <path id="path4139" d="m-445.71,345.22,302.86,0"/>
   <path id="path4141" d="M-171.43,229.51-54.286,346.65-168.57,460.93"/>
  </g>
  <g id="g4143" stroke-linejoin="miter" transform="matrix(0,-2.4363482,3.6720198,0,-12904.988,-1401.5237)" stroke="#000" stroke-linecap="round" stroke-dasharray="none" stroke-miterlimit="4" stroke-width="46.59999847" fill="none">
   <path id="path4145" d="m-398.57,722.36,302.86,0"/>
   <path id="path4147" d="M-171.43,606.65-54.286,723.79-168.57,838.08"/>
  </g>
  <g id="g4149" stroke-miterlimit="4" stroke-dasharray="none" transform="matrix(0,-1,1,0,-263.51951,-1187.577)">
   <path id="path4151" stroke-linejoin="miter" d="m-467.4,1089.2,327.36,0" stroke="#000" stroke-linecap="square" stroke-width="50.36977005" fill="none"/>
   <path id="path4153" transform="matrix(0,0.72756948,-0.72756948,0,-812.30361,1972.6951)" stroke-linecap="round" stroke-width="46.59999847" d="m-1066-830.58-148.32,0-148.32,0,74.158-128.45,74.159-128.45,74.158,128.45z"/>
  </g>
  <g id="g4155" stroke-linejoin="miter" transform="matrix(-0.70710678,-0.70710678,0.70710678,-0.70710678,-1648.8256,-264.3315)" stroke="#000" stroke-linecap="round" stroke-dasharray="none" stroke-miterlimit="4" stroke-width="46.59999847" fill="none">
   <path id="path4157" d="m-445.71,345.22,302.86,0"/>
   <path id="path4159" d="M-171.43,229.51-54.286,346.65-168.57,460.93"/>
  </g>
  <g id="g4161" stroke-linejoin="miter" transform="matrix(-2.5105424,-2.4786818,2.5105424,-2.4786818,-10603.445,-1235.3753)" stroke="#000" stroke-linecap="round" stroke-dasharray="none" stroke-miterlimit="4" stroke-width="46.59999847" fill="none">
   <path id="path4163" d="m-398.57,722.36,302.86,0"/>
   <path id="path4165" d="M-171.43,606.65-54.286,723.79-168.57,838.08"/>
  </g>
  <g id="g4167" stroke-miterlimit="4" stroke-dasharray="none" transform="matrix(-0.70710678,-0.70710678,0.70710678,-0.70710678,-1648.8256,-264.3315)">
   <path id="path4169" stroke-linejoin="miter" d="m-467.4,1089.2,327.36,0" stroke="#000" stroke-linecap="square" stroke-width="50.36977005" fill="none"/>
   <path id="path4171" d="m-1066-830.58-148.32,0-148.32,0,74.158-128.45,74.159-128.45,74.158,128.45z" transform="matrix(0,0.72756948,-0.72756948,0,-812.30361,1972.6951)" stroke-linecap="round" stroke-width="46.59999847"/>
  </g>
  <g id="g4191" stroke-linejoin="miter" transform="matrix(-1,0,0,1,-1822.8327,2392.0413)" stroke="#000" stroke-linecap="round" stroke-dasharray="none" stroke-miterlimit="4" stroke-width="46.59999847" fill="none">
   <path id="path4193" d="m-445.71,345.22,302.86,0"/>
   <path id="path4195" d="M-171.43,229.51-54.286,346.65-168.57,460.93"/>
  </g>
  <g id="g4197" stroke-linejoin="miter" transform="matrix(-1,0,0,1,-4205.6111,2182.5663)" stroke="#000" stroke-linecap="round" stroke-dasharray="none" stroke-miterlimit="4" stroke-width="46.59999847" fill="none">
   <path id="path4199" d="m-398.57,722.36,302.86,0"/>
   <path id="path4201" d="M-171.43,606.65-54.286,723.79-168.57,838.08"/>
  </g>
  <g id="g4203" stroke-miterlimit="4" stroke-dasharray="none" transform="matrix(-1,0,0,1,-1822.8327,2392.0413)">
   <path id="path4205" stroke-linejoin="miter" d="m-467.4,1089.2,327.36,0" stroke="#000" stroke-linecap="square" stroke-width="50.36977005" fill="none"/>
   <path id="path4207" transform="matrix(0,0.72756948,-0.72756948,0,-812.30361,1972.6951)" stroke-linecap="round" stroke-width="46.59999847" d="m-1066-830.58-148.32,0-148.32,0,74.158-128.45,74.159-128.45,74.158,128.45z"/>
  </g>
  <g id="g4209" stroke-linejoin="miter" transform="matrix(-0.70710678,-0.70710678,0.70710678,-0.70710678,-1931.6683,2515.6083)" stroke="#000" stroke-linecap="round" stroke-dasharray="none" stroke-miterlimit="4" stroke-width="46.59999847" fill="none">
   <path id="path4211" d="m-445.71,345.22,302.86,0"/>
   <path id="path4213" d="M-171.43,229.51-54.286,346.65-168.57,460.93"/>
  </g>
  <g id="g4215" stroke-linejoin="miter" transform="matrix(-0.70710678,-0.70710678,0.70710678,-0.70710678,-1834.6937,2289.3341)" stroke="#000" stroke-linecap="round" stroke-dasharray="none" stroke-miterlimit="4" stroke-width="46.59999847" fill="none">
   <path id="path4217" d="m-398.57,722.36,302.86,0"/>
   <path id="path4219" d="M-171.43,606.65-54.286,723.79-168.57,838.08"/>
  </g>
  <g id="g4221" stroke-miterlimit="4" stroke-dasharray="none" transform="matrix(-0.70710678,-0.70710678,0.70710678,-0.70710678,-1834.6937,2289.3341)">
   <path id="path4223" stroke-linejoin="miter" d="m-467.4,1089.2,327.36,0" stroke="#000" stroke-linecap="square" stroke-width="50.36977005" fill="none"/>
   <path id="path4225" transform="matrix(0,0.72756948,-0.72756948,0,-812.30361,1972.6951)" stroke-linecap="round" stroke-width="46.59999847" d="m-1066-830.58-148.32,0-148.32,0,74.158-128.45,74.159-128.45,74.158,128.45z"/>
  </g>
  <g id="g4437" stroke-linejoin="miter" transform="translate(-5200,-2725)" stroke="#000" stroke-linecap="round" stroke-miterlimit="4" stroke-dasharray="none" stroke-width="46.59999847" fill="none">
   <g id="g4227" transform="matrix(-1,0,0,1,-14448.493,-4253.9471)">
    <path id="path4229" d="m-571.67,345.22,428.81,0"/>
    <path id="path4231" d="M-171.43,229.51-54.286,346.65-168.57,460.93"/>
   </g>
   <g id="g4233" transform="matrix(-0.70710678,-0.70710678,0.70710678,-0.70710678,-14550.952,-4076.0213)">
    <path id="path4235" d="m-594.15,362.41,451.29-17.188"/>
    <path id="path4237" d="M-171.43,229.51-54.286,346.65-168.57,460.93"/>
   </g>
  </g>
  <g id="g4426" stroke-linejoin="miter" transform="translate(-5200,-2725)" stroke="#000" stroke-linecap="round" stroke-miterlimit="4" stroke-dasharray="none" stroke-width="46.59999847" fill="none">
   <g id="g4239" transform="matrix(-0.68314179,-0.73028576,-0.73028576,0.68314179,-13971.066,-3593.534)">
    <path id="path4241" d="m-571.67,345.22,428.81,0"/>
    <path id="path4243" d="M-171.43,229.51-54.286,346.65-168.57,460.93"/>
   </g>
   <g id="g4245" transform="matrix(0.03333582,-0.9994442,0.9994442,0.03333582,-14170.997,-3546.8099)">
    <path id="path4247" d="m-594.15,362.41,451.29-17.188"/>
    <path id="path4249" d="M-171.43,229.51-54.286,346.65-168.57,460.93"/>
   </g>
   <g id="g4251" transform="matrix(-0.9994442,-0.03333582,0.03333582,-0.9994442,-14435.492,-2597.0985)">
    <path id="path4253" d="m-594.15,362.41,451.29-17.188"/>
    <path id="path4255" d="M-171.43,229.51-54.286,346.65-168.57,460.93"/>
   </g>
  </g>
  <g id="g4445" stroke-linejoin="miter" transform="translate(-5200,-2725)" stroke="#000" stroke-linecap="round" stroke-miterlimit="4" stroke-dasharray="none" stroke-width="46.59999847" fill="none">
   <g id="g4257" transform="matrix(-0.68553301,-0.72804153,-0.72804153,0.68553301,-14069.323,-5194.6216)">
    <path id="path4259" d="m-571.67,345.22,428.81,0"/>
    <path id="path4261" d="M-171.43,229.51-54.286,346.65-168.57,460.93"/>
   </g>
   <g id="g4263" transform="matrix(0.03005806,-0.99954816,0.99954816,0.03005806,-14269.1,-5147.2421)">
    <path id="path4265" d="m-594.15,362.41,451.29-17.188"/>
    <path id="path4267" d="M-171.43,229.51-54.286,346.65-168.57,460.93"/>
   </g>
  </g>
  <g id="g4453" stroke-linejoin="miter" transform="translate(-5200,-2725)" stroke="#000" stroke-linecap="round" stroke-miterlimit="4" stroke-dasharray="none" stroke-width="46.59999847" fill="none">
   <g id="g4269" transform="matrix(-1,0,0,1,-15889.223,-5093.6364)">
    <path id="path4271" d="m-571.67,345.22,428.81,0"/>
    <path id="path4273" d="M-171.43,229.51-54.286,346.65-168.57,460.93"/>
   </g>
   <g id="g4275" transform="matrix(0.03005806,-0.99954816,0.99954816,0.03005806,-15656.016,-5353.0744)">
    <path id="path4277" d="m-594.15,362.41,451.29-17.188"/>
    <path id="path4279" d="M-171.43,229.51-54.286,346.65-168.57,460.93"/>
   </g>
  </g>
  <g id="g4281" stroke-linejoin="miter" transform="matrix(-1,0,0,1,-19680.715,-5449.1244)" stroke="#000" stroke-linecap="round" stroke-dasharray="none" stroke-miterlimit="4" stroke-width="46.59999847" fill="none">
   <path id="path4283" d="m-445.71,345.22,302.86,0"/>
   <path id="path4285" d="M-171.43,229.51-54.286,346.65-168.57,460.93"/>
  </g>
  <g id="g4287" stroke-linejoin="miter" transform="matrix(-0.70710678,-0.70710678,0.70710678,-0.70710678,-20611.326,-5214.3315)" stroke="#000" stroke-linecap="round" stroke-dasharray="none" stroke-miterlimit="4" stroke-width="46.59999847" fill="none">
   <path id="path4289" d="m-445.71,345.22,302.86,0"/>
   <path id="path4291" d="M-171.43,229.51-54.286,346.65-168.57,460.93"/>
  </g>
  <g id="g4299" stroke-linejoin="miter" transform="matrix(0,-1,1,0,-19013.52,-5462.577)" stroke="#000" stroke-linecap="round" stroke-dasharray="none" stroke-miterlimit="4" stroke-width="46.59999847" fill="none">
   <path id="path4301" d="m-445.71,345.22,302.86,0"/>
   <path id="path4303" d="M-171.43,229.51-54.286,346.65-168.57,460.93"/>
  </g>
  <g id="g4393" stroke-linejoin="miter" transform="matrix(1.8172104,0,0,1.9716246,12673.618,-2466.5388)" stroke="#000" stroke-linecap="round" stroke-miterlimit="4" stroke-dasharray="none" stroke-width="46.59999847" fill="none">
   <g id="g4305" transform="matrix(-1,0,0,1,-14298.233,-143.88893)">
    <path id="path4307" d="m-571.67,345.22,428.81,0"/>
    <path id="path4309" d="M-208.99,229.51-91.851,346.65-206.14,460.93"/>
   </g>
   <g id="g4311" transform="matrix(-0.70710678,-0.70710678,0.70710678,-0.70710678,-14400.692,34.036872)">
    <path id="path4313" d="m-594.15,362.41,451.29-17.188"/>
    <path id="path4315" d="M-204.24,227.94-87.098,345.09-201.38,459.37"/>
   </g>
  </g>
  <g id="g4409" stroke-linejoin="miter" transform="matrix(1.498828,0,0,1.4906657,9567.7376,-3355.9541)" stroke="#000" stroke-linecap="round" stroke-miterlimit="4" stroke-dasharray="none" stroke-width="46.59999847" fill="none">
   <g id="g4401">
    <g id="g4317" transform="matrix(-0.68314179,-0.73028576,-0.73028576,0.68314179,-13820.806,516.52417)">
     <path id="path4319" d="m-571.67,345.22,428.81,0"/>
     <path id="path4321" d="M-205.89,231.48-88.746,348.63-203.03,462.91"/>
    </g>
    <g id="g4323" transform="matrix(0.03333582,-0.9994442,0.9994442,0.03333582,-14020.737,563.24827)">
     <path id="path4325" d="m-594.15,362.41,451.29-17.188"/>
     <path id="path4327" d="M-211.18,230.83-94.038,347.97-208.32,462.26"/>
    </g>
   </g>
   <g id="g4329" transform="matrix(-0.9994442,-0.03333582,0.03333582,-0.9994442,-14285.232,1512.9597)">
    <path id="path4331" d="m-594.15,362.41,451.29-17.188"/>
    <path id="path4333" d="M-215.6,230.98-98.455,348.12-212.74,462.41"/>
   </g>
  </g>
  <g id="g4385" stroke-linejoin="miter" transform="matrix(2.0120842,0,0,1.7411277,15556.661,-2121.1985)" stroke="#000" stroke-linecap="round" stroke-miterlimit="4" stroke-dasharray="none" stroke-width="46.59999847" fill="none">
   <g id="g4335" transform="matrix(-0.68553301,-0.72804153,-0.72804153,0.68553301,-13919.063,-1084.5634)">
    <path id="path4337" d="m-571.67,345.22,428.81,0"/>
    <path id="path4339" d="M-215.16,228.19-98.016,345.33-212.3,459.62"/>
   </g>
   <g id="g4341" transform="matrix(0.03005806,-0.99954816,0.99954816,0.03005806,-14118.84,-1037.1839)">
    <path id="path4343" d="m-594.15,362.41,451.29-17.188"/>
    <path id="path4345" d="M-211.19,230.7-94.042,347.84-208.33,462.13"/>
   </g>
  </g>
  <g id="g4377" stroke-linejoin="miter" transform="matrix(1.6409352,0,0,1.4500759,9980.8529,-1922.68)" stroke="#000" stroke-linecap="round" stroke-miterlimit="4" stroke-dasharray="none" stroke-width="46.59999847" fill="none">
   <g id="g4347" transform="matrix(-1,0,0,1,-15509.153,-789.12388)">
    <path id="path4349" d="m-571.67,345.22,428.81,0"/>
    <path id="path4351" d="M-215.62,229.51-98.48,346.65-212.77,460.93"/>
   </g>
   <g id="g4353" transform="matrix(0.03005806,-0.99954816,0.99954816,0.03005806,-15275.946,-1048.5618)">
    <path id="path4355" d="m-594.15,362.41,451.29-17.188"/>
    <path id="path4357" d="M-215.6,230.83-98.46,347.98-212.75,462.26"/>
   </g>
  </g>
  <g id="g4359" stroke-linejoin="miter" transform="matrix(-1,0,0,1,-19499.205,-1339.0662)" stroke="#000" stroke-linecap="round" stroke-dasharray="none" stroke-miterlimit="4" stroke-width="46.59999847" fill="none">
   <path id="path4361" d="m-445.71,345.22,302.86,0"/>
   <path id="path4363" d="M-202.36,229.51-85.222,346.65-199.51,460.93"/>
  </g>
  <g id="g4365" stroke-linejoin="miter" transform="matrix(-0.70710678,-0.70710678,0.70710678,-0.70710678,-20461.066,-1104.2733)" stroke="#000" stroke-linecap="round" stroke-dasharray="none" stroke-miterlimit="4" stroke-width="46.59999847" fill="none">
   <path id="path4367" d="m-445.71,345.22,302.86,0"/>
   <path id="path4369" d="M-218.3,226.38-101.16,343.52-215.45,457.81"/>
  </g>
  <g id="g4421" transform="translate(-5200,-2725)">
   <g id="g4371" stroke-linejoin="miter" transform="matrix(0,-1,1,0,-13663.26,1372.4812)" stroke="#000" stroke-linecap="round" stroke-dasharray="none" stroke-miterlimit="4" stroke-width="46.59999847" fill="none">
    <path id="path4373" d="m-445.71,345.22,302.86,0"/>
    <path id="path4375" d="M-211.2,229.51-94.06,346.65-208.35,460.93"/>
   </g>
  </g>
 </g>
</svg>
